# character_left_arm.obj
g charactet_left_arm

v 0.125 0.0 -0.125
v 0.125 -0.75 -0.125
v -0.125 -0.75 -0.125
v 0.125 0.0 0.125
v -0.125 -0.75 0.125
v 0.125 -0.75 0.125
v -0.125 0.0 0.125
v -0.125 0.0 -0.125

vn 1.0 0.0 0.0
vn -1.0 0.0 0.0
vn 0.0 1.0 0.0
vn 0.0 -1.0 0.0
vn 0.0 0.0 1.0
vn 0.0 0.0 -1.0

# top
vt 0.5625 0.1875
vt 0.625 0.1875
vt 0.5625 0.25
vt 0.625 0.25
# bottom
vt 0.625 0.1875
vt 0.6775 0.1875
vt 0.625 0.25
vt 0.6775 0.25
# front
vt 0.5625 0.0
vt 0.625 0.0
vt 0.5625 0.1875
vt 0.625 0.1875
# back
vt 0.6875 0.0
vt 0.75 0.0
vt 0.6875 0.1875
vt 0.75 0.1875
# right
vt 0.5 0.0
vt 0.5625 0.0
vt 0.5 0.1875
vt 0.5625 0.1875
# left
vt 0.625 0.0
vt 0.6875 0.0
vt 0.625 0.1875
vt 0.6875 0.1875

# top
f 4/3/3 1/1/3 8/2/3
f 4/3/3 8/2/3 7/4/3
# bottom
f 2/6/4 6/8/4 5/7/4
f 2/6/4 5/7/4 3/5/4
# front
f 1/12/1 4/11/1 6/9/1
f 1/12/1 6/9/1 2/10/1
# back
f 3/13/2 5/14/2 7/16/2
f 3/13/2 7/16/2 8/15/2
# right
f 4/20/5 7/19/5 5/17/5
f 4/20/5 5/17/5 6/18/5
# left
f 1/23/6 2/21/6 3/22/6
f 1/23/6 3/22/6 8/24/6