# character_head.obj
g character_head

v 0.25 0.5 -0.25
v 0.25 0.0 -0.25
v -0.25 0.0 -0.25
v 0.25 0.5 0.25
v -0.25 0.0 0.25
v 0.25 0.0 0.25
v -0.25 0.5 0.25
v -0.25 0.5 -0.25

vn 1.0 0.0 0.0
vn -1.0 0.0 0.0
vn 0.0 1.0 0.0
vn 0.0 -1.0 0.0
vn 0.0 0.0 1.0
vn 0.0 0.0 -1.0

# top
vt 0.125 0.875
vt 0.25 0.875
vt 0.125 1.0
vt 0.25 1.0

# bottom
vt 0.25 0.875
vt 0.375 0.875
vt 0.25 1.0
vt 0.375 1.0

# front
vt 0.125 0.75
vt 0.25 0.75
vt 0.125 0.875
vt 0.25 0.875

# back
vt 0.375 0.75
vt 0.5 0.75
vt 0.375 0.875
vt 0.5 0.875

vt 0.0 0.75
vt 0.125 0.75
vt 0.0 0.875
vt 0.125 0.875

vt 0.25 0.75
vt 0.375 0.75
vt 0.25 0.875
vt 0.375 0.875


# top
f 4/3/3 1/1/3 8/2/3
f 4/3/3 8/2/3 7/4/3
# bottom
f 2/6/4 6/8/4 5/7/4
f 2/6/4 5/7/4 3/5/4
# front
f 1/12/1 4/11/1 6/9/1
f 1/12/1 6/9/1 2/10/1
# back
f 3/13/2 5/14/2 7/16/2
f 3/13/2 7/16/2 8/15/2
# right
f 4/20/5 7/19/5 5/17/5
f 4/20/5 5/17/5 6/18/5
# left
f 1/23/6 2/21/6 3/22/6
f 1/23/6 3/22/6 8/24/6

